<svg xmlns="http://www.w3.org/2000/svg"><symbol viewBox="0 0 384.0013 384" id="src-1"><g><g><path d="M353.188,252.052c-23.51,0-46.594-3.677-68.469-10.906c-10.719-3.656-23.896-0.302-30.438,6.417l-43.177,32.594    c-50.073-26.729-80.917-57.563-107.281-107.26l31.635-42.052c8.219-8.208,11.167-20.198,7.635-31.448    c-7.26-21.99-10.948-45.063-10.948-68.583C132.146,13.823,118.323,0,101.333,0H30.813C13.823,0,0,13.823,0,30.813    C0,225.563,158.438,384,353.188,384c16.99,0,30.813-13.823,30.813-30.813v-70.323C384,265.875,370.177,252.052,353.188,252.052z"/></g></g><g/><g/><g/><g/><g/><g/><g/><g/><g/><g/><g/><g/><g/><g/><g/></symbol><symbol viewBox="0 0 512 512" id="src-2"><g><g><path d="M347.216,301.211l-71.387-53.54V138.609c0-10.966-8.864-19.83-19.83-19.83c-10.966,0-19.83,8.864-19.83,19.83v118.978    c0,6.246,2.935,12.136,7.932,15.864l79.318,59.489c3.569,2.677,7.734,3.966,11.878,3.966c6.048,0,11.997-2.717,15.884-7.952    C357.766,320.208,355.981,307.775,347.216,301.211z"/></g></g><g><g><path d="M256,0C114.833,0,0,114.833,0,256s114.833,256,256,256s256-114.833,256-256S397.167,0,256,0z M256,472.341    c-119.275,0-216.341-97.066-216.341-216.341S136.725,39.659,256,39.659c119.295,0,216.341,97.066,216.341,216.341    S375.275,472.341,256,472.341z"/></g></g><g/><g/><g/><g/><g/><g/><g/><g/><g/><g/><g/><g/><g/><g/><g/></symbol><symbol viewBox="0 0 12.793892 17" id="src-3">
<path d="M4.48049 9.0542H6.34397V16.7258C6.34397 16.8773 6.4667 17 6.61816 17H9.77775C9.92921 17 10.0519 16.8773 10.0519 16.7258V9.09034H12.1942C12.3335 9.09034 12.4506 8.98582 12.4665 8.84746L12.7919 6.02315C12.8008 5.94545 12.7762 5.86763 12.7242 5.80934C12.6722 5.75099 12.5977 5.71759 12.5196 5.71759H10.0521V3.94718C10.0521 3.41349 10.3394 3.14286 10.9062 3.14286C10.987 3.14286 12.5196 3.14286 12.5196 3.14286C12.671 3.14286 12.7938 3.02008 12.7938 2.86867V0.276223C12.7938 0.124758 12.671 0.00202903 12.5196 0.00202903H10.2961C10.2805 0.00126129 10.2456 0 10.1943 0C9.80851 0 8.46754 0.0757322 7.40828 1.05022C6.23462 2.1301 6.39776 3.42309 6.43675 3.64727V5.71754H4.48049C4.32903 5.71754 4.2063 5.84027 4.2063 5.99173V8.77995C4.2063 8.93142 4.32903 9.0542 4.48049 9.0542Z"/>
</symbol><symbol viewBox="0 0 20 16.333334" id="src-4">
<path d="M12.4733 8.33318H6V11.3332H9.25566C8.81801 12.5775 7.75734 13.3332 6.40199 13.3332C4.59 13.3332 3 11.7749 3 9.99854C3 8.22354 4.59 6.66654 6.40199 6.66654C7.26832 6.66654 8.00066 6.94322 8.52 7.46619L8.75566 7.70385L10.988 5.4715L10.7454 5.23584C9.68867 4.20916 8.18703 3.6665 6.40203 3.6665C2.81234 3.66654 0 6.44787 0 9.99854C0 13.5505 2.81234 16.3332 6.40199 16.3332C9.71098 16.3332 12.062 14.3919 12.5377 11.2669C12.5996 10.8615 12.6313 10.4349 12.6316 9.99854C12.6316 9.51955 12.5906 8.99986 12.522 8.60885L12.4733 8.33318Z" fill="white"/>
<path d="M18.0017 8.33143V6.33307H15.6667V8.33307H13.6667V10.6664H15.6667V12.6664H18.0017V10.6664H20.0001V8.33143H18.0017Z" fill="white"/>
</symbol><symbol viewBox="0 0 222.49335 255.856" id="src-5"><g><path style="fill: rgb(255, 255, 255);" d="M127.928,38.8c-30.75,0-55.768,25.017-55.768,55.767s25.018,55.767,55.768,55.767   s55.768-25.017,55.768-55.767S158.678,38.8,127.928,38.8z M127.928,135.333c-22.479,0-40.768-18.288-40.768-40.767   S105.449,53.8,127.928,53.8s40.768,18.288,40.768,40.767S150.408,135.333,127.928,135.333z"/><path style="fill: rgb(255, 255, 255);" d="M127.928,0C75.784,0,33.362,42.422,33.362,94.566c0,30.072,25.22,74.875,40.253,98.904   c9.891,15.809,20.52,30.855,29.928,42.365c15.101,18.474,20.506,20.02,24.386,20.02c3.938,0,9.041-1.547,24.095-20.031   c9.429-11.579,20.063-26.616,29.944-42.342c15.136-24.088,40.527-68.971,40.527-98.917C222.495,42.422,180.073,0,127.928,0z    M171.569,181.803c-19.396,31.483-37.203,52.757-43.73,58.188c-6.561-5.264-24.079-26.032-43.746-58.089   c-22.707-37.015-35.73-68.848-35.73-87.336C48.362,50.693,84.055,15,127.928,15c43.873,0,79.566,35.693,79.566,79.566   C207.495,112.948,194.4,144.744,171.569,181.803z"/></g><g/><g/><g/><g/><g/><g/><g/><g/><g/><g/><g/><g/><g/><g/><g/></symbol><symbol viewBox="0 0 512.0027 455.51733" id="src-6"><path d="m256 455.515625c-7.289062 0-14.316406-2.640625-19.792969-7.4375-20.683593-18.085937-40.625-35.082031-58.21875-50.074219l-.089843-.078125c-51.582032-43.957031-96.125-81.917969-127.117188-119.3125-34.644531-41.804687-50.78125-81.441406-50.78125-124.742187 0-42.070313 14.425781-80.882813 40.617188-109.292969 26.503906-28.746094 62.871093-44.578125 102.414062-44.578125 29.554688 0 56.621094 9.34375 80.445312 27.769531 12.023438 9.300781 22.921876 20.683594 32.523438 33.960938 9.605469-13.277344 20.5-24.660157 32.527344-33.960938 23.824218-18.425781 50.890625-27.769531 80.445312-27.769531 39.539063 0 75.910156 15.832031 102.414063 44.578125 26.191406 28.410156 40.613281 67.222656 40.613281 109.292969 0 43.300781-16.132812 82.9375-50.777344 124.738281-30.992187 37.398437-75.53125 75.355469-127.105468 119.308594-17.625 15.015625-37.597657 32.039062-58.328126 50.167969-5.472656 4.789062-12.503906 7.429687-19.789062 7.429687zm-112.96875-425.523437c-31.066406 0-59.605469 12.398437-80.367188 34.914062-21.070312 22.855469-32.675781 54.449219-32.675781 88.964844 0 36.417968 13.535157 68.988281 43.882813 105.605468 29.332031 35.394532 72.960937 72.574219 123.476562 115.625l.09375.078126c17.660156 15.050781 37.679688 32.113281 58.515625 50.332031 20.960938-18.253907 41.011719-35.34375 58.707031-50.417969 50.511719-43.050781 94.136719-80.222656 123.46875-115.617188 30.34375-36.617187 43.878907-69.1875 43.878907-105.605468 0-34.515625-11.605469-66.109375-32.675781-88.964844-20.757813-22.515625-49.300782-34.914062-80.363282-34.914062-22.757812 0-43.652344 7.234374-62.101562 21.5-16.441406 12.71875-27.894532 28.796874-34.609375 40.046874-3.453125 5.785157-9.53125 9.238282-16.261719 9.238282s-12.808594-3.453125-16.261719-9.238282c-6.710937-11.25-18.164062-27.328124-34.609375-40.046874-18.449218-14.265626-39.34375-21.5-62.097656-21.5zm0 0"/></symbol><symbol viewBox="0 0 512.2507 511.89868" id="src-7"><path d="m510.949219 150.5c-1.199219-27.199219-5.597657-45.898438-11.898438-62.101562-6.5-17.199219-16.5-32.597657-29.601562-45.398438-12.800781-13-28.300781-23.101562-45.300781-29.5-16.296876-6.300781-34.898438-10.699219-62.097657-11.898438-27.402343-1.300781-36.101562-1.601562-105.601562-1.601562s-78.199219.300781-105.5 1.5c-27.199219 1.199219-45.898438 5.601562-62.097657 11.898438-17.203124 6.5-32.601562 16.5-45.402343 29.601562-13 12.800781-23.097657 28.300781-29.5 45.300781-6.300781 16.300781-10.699219 34.898438-11.898438 62.097657-1.300781 27.402343-1.601562 36.101562-1.601562 105.601562s.300781 78.199219 1.5 105.5c1.199219 27.199219 5.601562 45.898438 11.902343 62.101562 6.5 17.199219 16.597657 32.597657 29.597657 45.398438 12.800781 13 28.300781 23.101562 45.300781 29.5 16.300781 6.300781 34.898438 10.699219 62.101562 11.898438 27.296876 1.203124 36 1.5 105.5 1.5s78.199219-.296876 105.5-1.5c27.199219-1.199219 45.898438-5.597657 62.097657-11.898438 34.402343-13.300781 61.601562-40.5 74.902343-74.898438 6.296876-16.300781 10.699219-34.902343 11.898438-62.101562 1.199219-27.300781 1.5-36 1.5-105.5s-.101562-78.199219-1.300781-105.5zm-46.097657 209c-1.101562 25-5.300781 38.5-8.800781 47.5-8.601562 22.300781-26.300781 40-48.601562 48.601562-9 3.5-22.597657 7.699219-47.5 8.796876-27 1.203124-35.097657 1.5-103.398438 1.5s-76.5-.296876-103.402343-1.5c-25-1.097657-38.5-5.296876-47.5-8.796876-11.097657-4.101562-21.199219-10.601562-29.398438-19.101562-8.5-8.300781-15-18.300781-19.101562-29.398438-3.5-9-7.699219-22.601562-8.796876-47.5-1.203124-27-1.5-35.101562-1.5-103.402343s.296876-76.5 1.5-103.398438c1.097657-25 5.296876-38.5 8.796876-47.5 4.101562-11.101562 10.601562-21.199219 19.203124-29.402343 8.296876-8.5 18.296876-15 29.398438-19.097657 9-3.5 22.601562-7.699219 47.5-8.800781 27-1.199219 35.101562-1.5 103.398438-1.5 68.402343 0 76.5.300781 103.402343 1.5 25 1.101562 38.5 5.300781 47.5 8.800781 11.097657 4.097657 21.199219 10.597657 29.398438 19.097657 8.5 8.300781 15 18.300781 19.101562 29.402343 3.5 9 7.699219 22.597657 8.800781 47.5 1.199219 27 1.5 35.097657 1.5 103.398438s-.300781 76.300781-1.5 103.300781zm0 0"/><path d="m256.449219 124.5c-72.597657 0-131.5 58.898438-131.5 131.5s58.902343 131.5 131.5 131.5c72.601562 0 131.5-58.898438 131.5-131.5s-58.898438-131.5-131.5-131.5zm0 216.800781c-47.097657 0-85.300781-38.199219-85.300781-85.300781s38.203124-85.300781 85.300781-85.300781c47.101562 0 85.300781 38.199219 85.300781 85.300781s-38.199219 85.300781-85.300781 85.300781zm0 0"/><path d="m423.851562 119.300781c0 16.953125-13.746093 30.699219-30.703124 30.699219-16.953126 0-30.699219-13.746094-30.699219-30.699219 0-16.957031 13.746093-30.699219 30.699219-30.699219 16.957031 0 30.703124 13.742188 30.703124 30.699219zm0 0"/></symbol><symbol viewBox="0 0 472.552 511.9973" id="src-8"><g><g><path d="M409.124,63.426C368.224,22.525,313.843,0,256.001,0S143.777,22.525,102.877,63.426    c-40.901,40.902-63.426,95.282-63.426,153.123c0,117.012,110.638,214.337,170.077,266.623c8.26,7.266,15.393,13.541,21.076,18.849    c7.12,6.651,16.259,9.977,25.396,9.977c9.139,0,18.276-3.326,25.397-9.977c5.683-5.309,12.816-11.583,21.076-18.849    c59.439-52.287,170.077-149.611,170.077-266.623C472.549,158.708,450.025,104.328,409.124,63.426z M282.663,460.654    c-8.441,7.425-15.73,13.838-21.74,19.451c-2.761,2.577-7.085,2.578-9.847,0c-6.009-5.615-13.299-12.027-21.74-19.452    c-55.88-49.155-159.895-140.654-159.895-244.103c0-102.868,83.689-186.557,186.558-186.557    c102.868,0,186.557,83.689,186.557,186.557C442.557,319.999,338.543,411.498,282.663,460.654z"/></g></g><g><g><path d="M256.001,112.938c-52.621,0-95.431,42.809-95.431,95.43s42.81,95.43,95.431,95.43s95.43-42.809,95.43-95.43    S308.622,112.938,256.001,112.938z M256.001,273.805c-36.083,0-65.439-29.356-65.439-65.438s29.356-65.438,65.439-65.438    s65.438,29.356,65.438,65.438S292.084,273.805,256.001,273.805z"/></g></g><g/><g/><g/><g/><g/><g/><g/><g/><g/><g/><g/><g/><g/><g/><g/></symbol><symbol viewBox="0 0 128.99959 39.99882" id="src-9">
<path d="M102.425 35.1122C111.85 30.171 114.106 23.9325 111.211 22.177C106.939 19.8006 95.1792 24.0545 96.5341 35.7368C95.9513 36.0805 94.782 36.7125 94.782 36.7125L95.5504 39.0667C95.5504 39.0667 97.1985 38.0873 97.6217 37.7954C99.0025 38.9041 99.7189 39.5139 101.842 39.5693C106.382 39.6728 110.283 34.6539 110.283 34.6539L109.144 32.88C109.169 32.8652 104.177 37.6512 102.425 35.1122ZM103.676 27.9498C105.027 25.5734 107.206 23.7218 108.293 24.461C109.381 25.2001 107.206 28.9551 102.135 32.9613C101.924 32.6028 102.321 30.3484 103.676 27.9498ZM17.0654 39.5545C16.1393 39.5429 15.2541 39.1731 14.5969 38.5234C12.3401 36.1692 14.4633 28.2159 14.9125 26.4974C14.9234 26.4605 14.9256 26.4216 14.9188 26.3838C14.9121 26.3459 14.8965 26.3102 14.8735 26.2793C14.8504 26.2485 14.8205 26.2234 14.786 26.2061C14.7515 26.1888 14.7135 26.1797 14.6749 26.1795C14.6272 26.1796 14.5802 26.1918 14.5386 26.2151C14.497 26.2384 14.4621 26.272 14.4373 26.3126C13.4796 28.2418 8.30522 39.5545 3.73954 39.5545H3.47228C-0.959759 39.1295 -0.373274 33.05 1.00385 29.3505H8.1456C7.56283 30.936 7.37723 31.9375 7.37723 32.4697C7.40322 32.8393 7.72244 33.05 8.01197 32.8948C8.75436 32.4956 9.97559 30.9101 11.0372 29.0881C12.9488 25.7323 15.4433 20.7098 19.7342 8H27.5479C25.239 15.0811 23.3534 21.4785 22.3326 28.7961C22.3188 28.8843 22.3332 28.9746 22.3738 29.0542C22.4144 29.1338 22.4791 29.1986 22.5588 29.2395C22.6385 29.2804 22.7291 29.2953 22.8177 29.2821C22.9064 29.2688 22.9886 29.2281 23.0527 29.1657C25.2799 27.0776 33.4461 9.53005 33.9324 8H41.7905C41.7905 8 34.066 29.2729 34.7045 32.8393C34.7152 32.9709 34.7671 33.0958 34.8528 33.1965C34.9385 33.2972 35.0537 33.3686 35.1822 33.4008C35.3108 33.433 35.4462 33.4244 35.5696 33.376C35.6929 33.3277 35.798 33.2421 35.87 33.1313C36.3229 32.5769 36.9613 31.7565 37.4105 31.2538L38.524 32.3626C36.2969 35.1085 32.6592 40.0498 29.0512 39.4695C28.475 39.3503 27.9461 39.0665 27.5293 38.6528C23.7617 35.4042 29.0141 24.5164 29.9458 21.9516C30.1573 21.3972 30.3429 20.8687 30.4766 20.5509C30.4901 20.5122 30.4942 20.4709 30.4886 20.4304C30.4829 20.3898 30.4677 20.3512 30.4441 20.3176C30.4206 20.2841 30.3894 20.2566 30.3531 20.2374C30.3168 20.2182 30.2764 20.2078 30.2353 20.2072C30.1875 20.2068 30.1404 20.2189 30.0988 20.2423C30.0571 20.2656 30.0223 20.2994 29.9977 20.3402C29.8121 20.7356 29.3333 21.7668 29.1477 22.1105C26.8315 26.8928 21.4714 39.5545 17.0654 39.5545ZM90.8548 13.4439C88.7623 13.4072 86.7296 14.1402 85.1459 15.5024L85.2016 17.5905C85.2016 17.5905 87.696 15.0811 90.298 16.164C91.9944 16.8514 93.2676 18.8323 92.3136 22.2953C92.2617 22.5059 92.154 22.9051 92.102 23.1157C91.3596 21.5302 88.598 20.3143 84.7487 23.2192C81.9351 25.3332 81.2187 27.5802 80.6656 29.4059C79.8675 32.0743 79.9232 34.9496 80.5319 36.6718C80.7866 37.3434 81.1807 37.9539 81.6886 38.4634C82.1965 38.9729 82.8066 39.3699 83.4792 39.6285C89.8489 42.0344 94.8674 32.2369 96.4042 25.1743C97.3841 20.7098 98.1265 13.5732 90.8548 13.4439ZM87.4287 34.9016C86.7123 35.3783 85.4911 35.589 85.3055 33.3937C85.0679 30.2486 87.3767 26.5491 88.0672 25.6769C89.2624 24.2245 90.8808 24.1468 90.8548 26.4161C90.8288 29.0622 89.2067 33.7374 87.4287 34.9016ZM68.2121 11.6182C64.4445 10.3246 51.1372 14.5267 46.7385 29.1916C46.2077 29.3505 43.6354 29.9862 43.6354 29.9862L42.5218 32.9982L46.4601 31.7823C46.4601 31.7823 46.0333 39.3143 52.6702 39.5435C57.9003 39.355 60.6323 31.6936 58.9619 26.4863C58.6427 26.6452 54.4482 28.652 54.4482 28.652C54.4482 28.652 55.3242 33.7559 53.4683 34.9348C53.3975 34.9845 53.3172 35.0192 53.2324 35.0368C53.1477 35.0544 53.0602 35.0546 52.9753 35.0373C52.8905 35.02 52.8101 34.9855 52.7391 34.9362C52.6681 34.8868 52.608 34.8234 52.5626 34.75C52.0318 34.0109 51.6865 32.0558 52.273 29.4651C61.8535 24.4979 68.4088 15.7907 68.8097 12.7639C68.8581 12.5336 68.825 12.2937 68.7161 12.0849C68.6072 11.8761 68.4291 11.7112 68.2121 11.6182V11.6182ZM56.2931 24.594C55.3007 25.36 54.2453 26.0412 53.1379 26.6304C53.1379 26.6304 53.639 25.4662 54.0139 24.8047C55.0458 23.0899 59.9827 16.4559 64.1252 15.24C64.1595 15.2275 64.1966 15.2244 64.2324 15.2313C64.2683 15.2382 64.3016 15.2547 64.3287 15.2791C64.3559 15.3034 64.3758 15.3347 64.3864 15.3695C64.397 15.4043 64.3978 15.4413 64.3888 15.4766C64.3888 16.9327 59.1364 22.4542 56.2931 24.594ZM76.0442 35.4301C76.0314 35.4684 76.0305 35.5097 76.0417 35.5486C76.053 35.5874 76.0758 35.6219 76.1072 35.6476C76.1386 35.6732 76.1771 35.6888 76.2175 35.6922C76.258 35.6956 76.2985 35.6866 76.3338 35.6666C76.8465 35.3306 77.3421 34.9692 77.8185 34.5837L78.3493 36.1951C78.0301 36.5388 75.48 38.5493 73.895 39.2884C72.1727 40.083 70.6062 39.026 70.365 37.7547C70.1274 36.2764 70.8698 34.3472 70.8698 34.3472C70.8698 34.3472 68.1378 37.4664 65.3502 38.9706C64.7985 39.3169 64.1675 39.5178 63.5165 39.5545C61.6345 39.4991 61.048 37.7067 61.2633 36.7236C61.5009 35.5631 64.051 27.765 64.3665 26.4974C64.3702 26.4631 64.3657 26.4284 64.3533 26.3962C64.341 26.364 64.3211 26.3352 64.2954 26.3121C64.2697 26.289 64.2388 26.2723 64.2054 26.2634C64.1719 26.2545 64.1368 26.2536 64.1029 26.2608C63.3309 26.4715 61.3153 27.7909 61.3153 27.7909V25.6252C61.3153 25.6252 67.1542 21.6596 68.6129 21.2383C69.9678 20.8687 71.1371 21.6337 70.7918 23.1675C70.6322 24.2245 66.8349 33.3937 66.8349 34.5579C66.8308 34.5892 66.8345 34.621 66.8457 34.6506C66.8569 34.6802 66.8752 34.7065 66.899 34.7274C66.9229 34.7482 66.9516 34.7628 66.9825 34.77C67.0134 34.7772 67.0456 34.7767 67.0762 34.7685C68.1638 34.4507 70.1534 32.7617 71.6679 30.3558C73.1007 28.1087 74.0546 25.2815 75.2499 21.7668H80.3204C80.3167 21.7926 76.4674 33.5009 76.0442 35.4301V35.4301ZM128.995 24.4351C129.103 26.076 127.536 34.7168 121.166 38.1797C119.281 39.2108 118.008 39.6063 116.864 39.5545C114.158 39.4732 112.885 37.2816 112.592 36.5684C109.489 28.9033 118.564 21.7852 118.564 21.7852H123.82C123.82 21.7852 115.803 28.1568 116.92 33.8113C117.796 37.2447 121.003 35.5816 122.785 31.6973C123.13 30.9286 125.279 25.8284 123.928 25.7508C122.733 25.6695 121.14 28.1826 121.14 28.1826L120.027 26.49C120.903 25.3812 123.345 22.4727 126.081 21.5487C126.526 21.4231 128.969 20.9204 128.995 24.4351ZM40.8922 35.3783C41.307 35.3783 41.7125 35.5008 42.0574 35.7302C42.4023 35.9597 42.6711 36.2858 42.8298 36.6673C42.9886 37.0489 43.0301 37.4687 42.9492 37.8738C42.8683 38.2789 42.6685 38.6509 42.3752 38.9429C42.0819 39.235 41.7082 39.4338 41.3014 39.5144C40.8946 39.595 40.4729 39.5536 40.0897 39.3956C39.7065 39.2375 39.3789 38.9699 39.1485 38.6265C38.918 38.2831 38.795 37.8794 38.795 37.4664C38.793 37.1917 38.8459 36.9193 38.9506 36.665C39.0553 36.4108 39.2097 36.1798 39.4049 35.9855C39.6 35.7912 39.832 35.6375 40.0873 35.5333C40.3427 35.429 40.6163 35.3763 40.8922 35.3783V35.3783Z"/>
</symbol><symbol viewBox="0 0 14.62 17.999666" id="src-10">
<path d="M8.99981 9.74088C11.6897 9.74088 13.8703 7.56031 13.8703 4.87042C13.8703 2.18053 11.6897 0 8.99981 0C6.30993 0 4.12939 2.18057 4.12939 4.87046C4.1327 7.55894 6.31133 9.73757 8.99981 9.74088ZM8.99981 2.2479C10.4482 2.2479 11.6224 3.42204 11.6224 4.87046C11.6224 6.31887 10.4482 7.49301 8.99981 7.49301C7.5514 7.49301 6.37726 6.31887 6.37726 4.87046C6.37726 3.42204 7.55143 2.2479 8.99981 2.2479Z"/>
<path d="M13.7707 12.0487C14.3001 11.7 14.619 11.1089 14.6197 10.4751C14.6271 9.94912 14.3303 9.4661 13.8577 9.23502C13.3721 8.9925 12.7909 9.04711 12.3591 9.3759C10.3576 10.835 7.64305 10.835 5.64162 9.3759C5.20911 9.04883 4.62891 8.99429 4.14301 9.23502C3.67063 9.46606 3.37367 9.94855 3.38023 10.4744C3.38136 11.108 3.70017 11.699 4.2292 12.0479C4.90793 12.4993 5.64706 12.8524 6.42466 13.0969C6.55655 13.1379 6.69265 13.1758 6.83304 13.2108L4.56867 15.425C3.97466 16.0013 3.9603 16.9501 4.53664 17.5441C5.11298 18.1381 6.06169 18.1525 6.65574 17.5761C6.6681 17.5641 6.68025 17.5519 6.69219 17.5395L9.00005 15.1507L11.3124 17.544C11.8882 18.1385 12.837 18.1536 13.4315 17.5777C14.0259 17.0019 14.041 16.0531 13.4652 15.4586C13.4531 15.4462 13.4409 15.434 13.4284 15.422L11.1678 13.21C11.3081 13.1741 11.4447 13.1359 11.5776 13.0954C12.3544 12.8519 13.0928 12.4994 13.7707 12.0487Z"/>
</symbol><symbol viewBox="0 0 192.90466 192.90399" id="src-11"><path d="M190.707,180.101l-47.078-47.077c11.702-14.072,18.752-32.142,18.752-51.831C162.381,36.423,125.959,0,81.191,0  C36.422,0,0,36.423,0,81.193c0,44.767,36.422,81.187,81.191,81.187c19.688,0,37.759-7.049,51.831-18.751l47.079,47.078  c1.464,1.465,3.384,2.197,5.303,2.197c1.919,0,3.839-0.732,5.304-2.197C193.637,187.778,193.637,183.03,190.707,180.101z M15,81.193  C15,44.694,44.693,15,81.191,15c36.497,0,66.189,29.694,66.189,66.193c0,36.496-29.692,66.187-66.189,66.187  C44.693,147.38,15,117.689,15,81.193z"/><g/><g/><g/><g/><g/><g/><g/><g/><g/><g/><g/><g/><g/><g/><g/></symbol><symbol viewBox="0 0 512 490.66666" id="src-12"><g><g><path d="M509.867,89.6c-2.133-2.133-4.267-4.267-8.533-4.267H96L85.333,29.867c0-4.267-6.4-8.533-10.667-8.533h-64    C4.267,21.333,0,25.6,0,32c0,6.4,4.267,10.667,10.667,10.667h55.467l51.2,260.267c6.4,34.133,38.4,59.733,72.533,59.733H435.2    c6.4,0,10.667-4.267,10.667-10.667c0-6.4-4.267-10.667-10.667-10.667H192c-17.067,0-34.133-8.533-42.667-23.467L460.8,275.2    c4.267,0,8.533-4.267,8.533-8.533L512,96C512,96,512,91.733,509.867,89.6z M450.133,256l-311.467,40.533l-38.4-192H486.4    L450.133,256z"/></g></g><g><g><path d="M181.333,384C151.467,384,128,407.467,128,437.333c0,29.867,23.467,53.333,53.333,53.333    c29.867,0,53.333-23.467,53.333-53.333C234.667,407.467,211.2,384,181.333,384z M181.333,469.333c-17.067,0-32-14.934-32-32    s14.933-32,32-32c17.067,0,32,14.934,32,32S198.4,469.333,181.333,469.333z"/></g></g><g><g><path d="M394.667,384c-29.867,0-53.333,23.467-53.333,53.333c0,29.867,23.467,53.333,53.333,53.333    c29.867,0,53.333-23.467,53.333-53.333C448,407.467,424.533,384,394.667,384z M394.667,469.333c-17.067,0-32-14.934-32-32    s14.933-32,32-32c17.067,0,32,14.934,32,32S411.733,469.333,394.667,469.333z"/></g></g><g/><g/><g/><g/><g/><g/><g/><g/><g/><g/><g/><g/><g/><g/><g/></symbol><symbol viewBox="0 0 478 477.95068" id="src-13"><g><g><path d="M119.5,187.75H17.1c-9.4,0-17,7.6-17.1,17.1v256c0,9.5,7.7,17.1,17.1,17.1h102.4c9.5,0,17.1-7.7,17.1-17.1v-256    C136.6,195.35,128.9,187.75,119.5,187.75z"/></g></g><g><g><path d="M290.2,0.05H187.8c-9.4,0-17.1,7.6-17.1,17v443.8c0,9.5,7.7,17.1,17.1,17.1h102.4c9.5,0,17.1-7.7,17.1-17.1V17.15    C307.3,7.65,299.6,0.05,290.2,0.05z"/></g></g><g><g><path d="M460.9,136.55H358.5c-9.5,0-17.1,7.6-17.1,17.1v307.2c0,9.5,7.7,17.1,17.1,17.1h102.4c9.5,0,17.1-7.7,17.1-17.1v-307.2    C478,144.15,470.3,136.55,460.9,136.55z"/></g></g><g/><g/><g/><g/><g/><g/><g/><g/><g/><g/><g/><g/><g/><g/><g/></symbol><symbol viewBox="0 0 481.6887 482.6" id="src-14"><g><path d="M98.339,320.8c47.6,56.9,104.9,101.7,170.3,133.4c24.9,11.8,58.2,25.8,95.3,28.2c2.3,0.1,4.5,0.2,6.8,0.2   c24.9,0,44.9-8.6,61.2-26.3c0.1-0.1,0.3-0.3,0.4-0.5c5.8-7,12.4-13.3,19.3-20c4.7-4.5,9.5-9.2,14.1-14   c21.3-22.2,21.3-50.4-0.2-71.9l-60.1-60.1c-10.2-10.6-22.4-16.2-35.2-16.2c-12.8,0-25.1,5.6-35.6,16.1l-35.8,35.8   c-3.3-1.9-6.7-3.6-9.9-5.2c-4-2-7.7-3.9-11-6c-32.6-20.7-62.2-47.7-90.5-82.4c-14.3-18.1-23.9-33.3-30.6-48.8   c9.4-8.5,18.2-17.4,26.7-26.1c3-3.1,6.1-6.2,9.2-9.3c10.8-10.8,16.6-23.3,16.6-36s-5.7-25.2-16.6-36l-29.8-29.8   c-3.5-3.5-6.8-6.9-10.2-10.4c-6.6-6.8-13.5-13.8-20.3-20.1c-10.3-10.1-22.4-15.4-35.2-15.4c-12.7,0-24.9,5.3-35.6,15.5l-37.4,37.4   c-13.6,13.6-21.3,30.1-22.9,49.2c-1.9,23.9,2.5,49.3,13.9,80C32.739,229.6,59.139,273.7,98.339,320.8z M25.739,104.2   c1.2-13.3,6.3-24.4,15.9-34l37.2-37.2c5.8-5.6,12.2-8.5,18.4-8.5c6.1,0,12.3,2.9,18,8.7c6.7,6.2,13,12.7,19.8,19.6   c3.4,3.5,6.9,7,10.4,10.6l29.8,29.8c6.2,6.2,9.4,12.5,9.4,18.7s-3.2,12.5-9.4,18.7c-3.1,3.1-6.2,6.3-9.3,9.4   c-9.3,9.4-18,18.3-27.6,26.8c-0.2,0.2-0.3,0.3-0.5,0.5c-8.3,8.3-7,16.2-5,22.2c0.1,0.3,0.2,0.5,0.3,0.8   c7.7,18.5,18.4,36.1,35.1,57.1c30,37,61.6,65.7,96.4,87.8c4.3,2.8,8.9,5,13.2,7.2c4,2,7.7,3.9,11,6c0.4,0.2,0.7,0.4,1.1,0.6   c3.3,1.7,6.5,2.5,9.7,2.5c8,0,13.2-5.1,14.9-6.8l37.4-37.4c5.8-5.8,12.1-8.9,18.3-8.9c7.6,0,13.8,4.7,17.7,8.9l60.3,60.2   c12,12,11.9,25-0.3,37.7c-4.2,4.5-8.6,8.8-13.3,13.3c-7,6.8-14.3,13.8-20.9,21.7c-11.5,12.4-25.2,18.2-42.9,18.2   c-1.7,0-3.5-0.1-5.2-0.2c-32.8-2.1-63.3-14.9-86.2-25.8c-62.2-30.1-116.8-72.8-162.1-127c-37.3-44.9-62.4-86.7-79-131.5   C28.039,146.4,24.139,124.3,25.739,104.2z"/></g><g/><g/><g/><g/><g/><g/><g/><g/><g/><g/><g/><g/><g/><g/><g/></symbol><symbol viewBox="0 0 19 16.294666" id="src-15">
<path d="M7.0883 16.2947C6.26668 16.2947 5.42099 16.2281 4.57023 16.0948C3.0718 15.8596 1.55496 15.0759 1.12574 14.8412L0 14.2257L1.21881 13.8249C2.55111 13.3868 3.36157 13.115 4.36483 12.6894C3.36027 12.2029 2.58605 11.3278 2.21336 10.1965L1.92982 9.33579L2.16234 9.3713C1.94186 9.14908 1.76776 8.92352 1.63281 8.71841C1.15285 7.98941 0.898739 7.09864 0.952808 6.33529L1.00615 5.58397L1.45596 5.75821C1.26621 5.39987 1.12908 5.01718 1.04848 4.61608C0.852063 3.6379 1.01645 2.5987 1.51148 1.68995L1.9033 0.970666L2.42732 1.60008C4.08462 3.59094 6.18376 4.77191 8.67515 5.11764C8.57339 4.41618 8.64964 3.73923 8.90201 3.13243C9.19584 2.4259 9.71856 1.82679 10.4132 1.39974C11.1847 0.925584 12.1202 0.695825 13.0475 0.752794C14.0313 0.813241 14.9246 1.18187 15.634 1.81954C15.9805 1.72952 16.2357 1.63342 16.5807 1.50353C16.7883 1.4254 17.0237 1.33669 17.3183 1.23522L18.4037 0.861223L17.6959 2.88281C17.7426 2.8789 17.7907 2.87557 17.841 2.87339L19.0001 2.82092L18.315 3.7572C18.2757 3.81084 18.2657 3.82606 18.2518 3.84708C18.1966 3.93028 18.1279 4.03378 17.1875 5.28941C16.9521 5.60383 16.8345 6.01334 16.8564 6.4427C16.9398 8.07436 16.7396 9.55061 16.2611 10.8303C15.8085 12.041 15.1072 13.0798 14.1769 13.9178C13.0256 14.9545 11.5576 15.6644 9.81351 16.0274C8.95796 16.2054 8.03922 16.2947 7.0883 16.2947Z"/>
</symbol><symbol viewBox="0 0 512 512" id="src-16"><g><g><path d="M437.02,330.98c-27.883-27.882-61.071-48.523-97.281-61.018C378.521,243.251,404,198.548,404,148    C404,66.393,337.607,0,256,0S108,66.393,108,148c0,50.548,25.479,95.251,64.262,121.962    c-36.21,12.495-69.398,33.136-97.281,61.018C26.629,379.333,0,443.62,0,512h40c0-119.103,96.897-216,216-216s216,96.897,216,216    h40C512,443.62,485.371,379.333,437.02,330.98z M256,256c-59.551,0-108-48.448-108-108S196.449,40,256,40    c59.551,0,108,48.448,108,108S315.551,256,256,256z"/></g></g><g/><g/><g/><g/><g/><g/><g/><g/><g/><g/><g/><g/><g/><g/><g/></symbol><symbol viewBox="0 0 20.000065 15.705322" id="src-17">
<g clip-path="url(#clip0)">
<path d="M19.894 14.5997C19.8698 14.5475 19.8472 14.5042 19.8262 14.4696C19.4792 13.8446 18.8161 13.0775 17.8373 12.1681L17.8166 12.1472L17.8063 12.137L17.7958 12.1266H17.7853C17.341 11.7031 17.0597 11.4183 16.9419 11.2726C16.7264 10.9949 16.6781 10.7138 16.7959 10.429C16.8791 10.2138 17.1918 9.75932 17.7331 9.06499C18.0178 8.69702 18.2433 8.4021 18.4099 8.17991C19.611 6.58314 20.1317 5.56279 19.9719 5.11844L19.9099 5.01461C19.8682 4.95209 19.7606 4.8949 19.5872 4.84275C19.4135 4.7907 19.1914 4.78209 18.9206 4.81678L15.9217 4.8375C15.8731 4.82028 15.8037 4.82189 15.7134 4.84275C15.6231 4.86361 15.5779 4.87408 15.5779 4.87408L15.5257 4.90016L15.4843 4.93149C15.4496 4.9522 15.4114 4.98864 15.3697 5.04072C15.3282 5.09262 15.2936 5.15353 15.2658 5.22294C14.9393 6.06294 14.5681 6.84392 14.1515 7.56586C13.8946 7.99634 13.6587 8.36942 13.4433 8.68531C13.2281 9.00109 13.0476 9.23375 12.9019 9.38288C12.756 9.53217 12.6244 9.65176 12.5061 9.7421C12.3881 9.83248 12.298 9.87067 12.2355 9.8567C12.173 9.84273 12.1141 9.82887 12.0583 9.81501C11.9612 9.7525 11.8831 9.66748 11.8242 9.55988C11.765 9.45229 11.7252 9.31687 11.7044 9.15373C11.6836 8.99048 11.6714 8.85006 11.6679 8.732C11.6646 8.61408 11.6661 8.44729 11.6732 8.2321C11.6804 8.01681 11.6836 7.87113 11.6836 7.79476C11.6836 7.53092 11.6888 7.24457 11.6991 6.93565C11.7096 6.62673 11.7181 6.38196 11.7252 6.20164C11.7323 6.02114 11.7356 5.83017 11.7356 5.62884C11.7356 5.42751 11.7233 5.26962 11.6991 5.15503C11.6752 5.04057 11.6385 4.92948 11.5901 4.82178C11.5414 4.71418 11.4701 4.63095 11.3766 4.57187C11.2829 4.51285 11.1664 4.46602 11.0278 4.43123C10.6598 4.34796 10.1912 4.30292 9.62185 4.29592C8.33069 4.28206 7.50105 4.36543 7.13311 4.54593C6.98733 4.6222 6.85541 4.7264 6.73746 4.85821C6.61247 5.011 6.59504 5.09437 6.68527 5.10809C7.10186 5.17049 7.39677 5.31977 7.57035 5.55579L7.6329 5.68085C7.68155 5.77108 7.73013 5.93083 7.77875 6.15988C7.8273 6.38893 7.85863 6.6423 7.87241 6.91986C7.90706 7.42672 7.90706 7.86059 7.87241 8.22153C7.83765 8.5826 7.80483 8.8637 7.7735 9.06503C7.74217 9.26635 7.69534 9.4295 7.6329 9.55441C7.57035 9.67937 7.52873 9.75574 7.50787 9.78346C7.48704 9.81118 7.46968 9.82865 7.4559 9.83551C7.36566 9.87008 7.27182 9.8877 7.17469 9.8877C7.07742 9.8877 6.95947 9.83905 6.82065 9.74181C6.68188 9.64457 6.53785 9.51101 6.38856 9.3409C6.23928 9.17076 6.07093 8.933 5.88342 8.62757C5.69606 8.32215 5.50166 7.96119 5.30033 7.54467L5.13376 7.2426C5.02963 7.04828 4.88739 6.76532 4.70689 6.394C4.52628 6.02252 4.36664 5.6632 4.22786 5.31609C4.17238 5.17031 4.08904 5.05932 3.97799 4.98295L3.92587 4.95162C3.89122 4.9239 3.8356 4.89447 3.7593 4.8631C3.68289 4.83177 3.60316 4.8093 3.51978 4.79548L0.666572 4.8162C0.375011 4.8162 0.177184 4.88225 0.073018 5.01417L0.0313299 5.07657C0.0105041 5.11133 0 5.16684 0 5.24325C0 5.31963 0.0208258 5.41336 0.0625139 5.52435C0.47903 6.50327 0.931983 7.44736 1.42137 8.35677C1.91076 9.26617 2.33603 9.99872 2.69692 10.5538C3.05789 11.1092 3.42583 11.6334 3.80073 12.1262C4.17563 12.6191 4.42379 12.935 4.54521 13.0738C4.66677 13.2128 4.76225 13.3167 4.83166 13.3861L5.09204 13.636C5.25865 13.8027 5.5033 14.0022 5.82612 14.2347C6.14901 14.4674 6.50648 14.6965 6.89871 14.9223C7.291 15.1477 7.74739 15.3317 8.2681 15.4739C8.78875 15.6164 9.2955 15.6735 9.78842 15.6459H10.986C11.2288 15.625 11.4128 15.5486 11.5379 15.4168L11.5793 15.3646C11.6072 15.3232 11.6333 15.2588 11.6573 15.1722C11.6817 15.0854 11.6938 14.9898 11.6938 14.8858C11.6867 14.5874 11.7094 14.3184 11.7614 14.0789C11.8133 13.8395 11.8724 13.659 11.9386 13.5374C12.0047 13.416 12.0793 13.3135 12.1624 13.2304C12.2456 13.1471 12.3049 13.0967 12.3397 13.0793C12.3743 13.0619 12.4019 13.05 12.4227 13.0429C12.5893 12.9874 12.7854 13.0412 13.0112 13.2044C13.2369 13.3676 13.4486 13.569 13.6465 13.8084C13.8444 14.048 14.0821 14.3169 14.3597 14.6153C14.6376 14.9139 14.8805 15.1358 15.0886 15.2818L15.2968 15.4068C15.4359 15.4902 15.6164 15.5665 15.8386 15.636C16.0604 15.7053 16.2547 15.7227 16.4215 15.688L19.0872 15.6464C19.3509 15.6464 19.556 15.6028 19.7015 15.5161C19.8474 15.4294 19.934 15.3338 19.9619 15.2298C19.9898 15.1257 19.9913 15.0076 19.9672 14.8756C19.9425 14.7439 19.9182 14.6518 19.894 14.5997Z"/>
</g>
<defs>
<clipPath id="clip0">
<rect width="20" height="20"/>
</clipPath>
</defs>
</symbol><symbol viewBox="0 0 96.874664 82.1994" id="src-18"><g><path d="M95.201,25.538c-1.186-5.152-5.4-8.953-10.473-9.52c-12.013-1.341-24.172-1.348-36.275-1.341   c-12.105-0.007-24.266,0-36.279,1.341c-5.07,0.567-9.281,4.368-10.467,9.52C0.019,32.875,0,40.884,0,48.438   C0,55.992,0,64,1.688,71.336c1.184,5.151,5.396,8.952,10.469,9.52c12.012,1.342,24.172,1.349,36.277,1.342   c12.107,0.007,24.264,0,36.275-1.342c5.07-0.567,9.285-4.368,10.471-9.52c1.689-7.337,1.695-15.345,1.695-22.898   C96.875,40.884,96.889,32.875,95.201,25.538z M35.936,63.474c0-10.716,0-21.32,0-32.037c10.267,5.357,20.466,10.678,30.798,16.068   C56.434,52.847,46.23,58.136,35.936,63.474z"/></g><g/><g/><g/><g/><g/><g/><g/><g/><g/><g/><g/><g/><g/><g/><g/></symbol></svg>