<?xml version="1.0" encoding="iso-8859-1"?><!DOCTYPE svg PUBLIC "-//W3C//DTD SVG 1.1//EN" "http://www.w3.org/Graphics/SVG/1.1/DTD/svg11.dtd"><svg viewBox="0 0 512 512" xmlns="http://www.w3.org/2000/svg" xmlns:xlink="http://www.w3.org/1999/xlink"><style>:root>svg{display:none}:root>svg:target{display:block}</style><svg viewBox="0 0 384 384" id="call" xmlns="http://www.w3.org/2000/svg"><path d="M353.188 252.052c-23.51 0-46.594-3.677-68.469-10.906-10.719-3.656-23.896-.302-30.438 6.417l-43.177 32.594c-50.073-26.729-80.917-57.563-107.281-107.26l31.635-42.052c8.219-8.208 11.167-20.198 7.635-31.448-7.26-21.99-10.948-45.063-10.948-68.583C132.146 13.823 118.323 0 101.333 0h-70.52C13.823 0 0 13.823 0 30.813 0 225.563 158.438 384 353.188 384c16.99 0 30.813-13.823 30.813-30.813v-70.323c-.001-16.989-13.824-30.812-30.813-30.812z"/></svg><svg viewBox="0 0 512 512" id="clock" xmlns="http://www.w3.org/2000/svg"><path d="M347.216 301.211l-71.387-53.54V138.609c0-10.966-8.864-19.83-19.83-19.83-10.966 0-19.83 8.864-19.83 19.83v118.978c0 6.246 2.935 12.136 7.932 15.864l79.318 59.489a19.713 19.713 0 0011.878 3.966c6.048 0 11.997-2.717 15.884-7.952 6.585-8.746 4.8-21.179-3.965-27.743z"/><path d="M256 0C114.833 0 0 114.833 0 256s114.833 256 256 256 256-114.833 256-256S397.167 0 256 0zm0 472.341c-119.275 0-216.341-97.066-216.341-216.341S136.725 39.659 256 39.659c119.295 0 216.341 97.066 216.341 216.341S375.275 472.341 256 472.341z"/></svg><svg viewBox="0 0 17 17" id="fb" xmlns="http://www.w3.org/2000/svg"><path d="M4.48 9.054h1.864v7.672c0 .151.123.274.274.274h3.16a.274.274 0 00.274-.274V9.09h2.142c.14 0 .257-.104.272-.243l.326-2.824a.274.274 0 00-.272-.305h-2.468v-1.77c0-.535.287-.805.854-.805h1.614a.274.274 0 00.274-.274V.276a.274.274 0 00-.274-.274h-2.224c-.015 0-.05-.002-.102-.002-.385 0-1.726.076-2.786 1.05-1.173 1.08-1.01 2.373-.971 2.597v2.07H4.48a.274.274 0 00-.274.275V8.78c0 .151.123.274.274.274z"/></svg><svg fill="none" viewBox="0 0 20 20" id="google" xmlns="http://www.w3.org/2000/svg"><path d="M12.473 8.333H6v3h3.256c-.438 1.245-1.499 2-2.854 2C4.59 13.333 3 11.775 3 10c0-1.775 1.59-3.332 3.402-3.332.866 0 1.599.276 2.118.8l.236.237 2.232-2.232-.243-.236c-1.056-1.027-2.558-1.57-4.343-1.57C2.812 3.667 0 6.449 0 10s2.812 6.334 6.402 6.334c3.309 0 5.66-1.941 6.136-5.066.062-.405.093-.832.094-1.268 0-.48-.041-1-.11-1.39l-.049-.276zM18.002 8.331V6.333h-2.335v2h-2v2.333h2v2h2.335v-2H20V8.331h-1.998z" fill="#fff"/></svg><svg viewBox="0 0 255.856 255.856" id="gps" xmlns="http://www.w3.org/2000/svg"><g fill="#fff"><path d="M127.928 38.8c-30.75 0-55.768 25.017-55.768 55.767s25.018 55.767 55.768 55.767 55.768-25.017 55.768-55.767S158.678 38.8 127.928 38.8zm0 96.533c-22.479 0-40.768-18.288-40.768-40.767S105.449 53.8 127.928 53.8s40.768 18.288 40.768 40.767-18.288 40.766-40.768 40.766z"/><path d="M127.928 0C75.784 0 33.362 42.422 33.362 94.566c0 30.072 25.22 74.875 40.253 98.904 9.891 15.809 20.52 30.855 29.928 42.365 15.101 18.474 20.506 20.02 24.386 20.02 3.938 0 9.041-1.547 24.095-20.031 9.429-11.579 20.063-26.616 29.944-42.342 15.136-24.088 40.527-68.971 40.527-98.917C222.495 42.422 180.073 0 127.928 0zm43.641 181.803c-19.396 31.483-37.203 52.757-43.73 58.188-6.561-5.264-24.079-26.032-43.746-58.089-22.707-37.015-35.73-68.848-35.73-87.336C48.362 50.693 84.055 15 127.928 15s79.566 35.693 79.566 79.566c.001 18.382-13.094 50.178-35.925 87.237z"/></g></svg><svg viewBox="0 -28 512.001 512" id="heart" xmlns="http://www.w3.org/2000/svg"><path d="M256 455.516c-7.29 0-14.316-2.641-19.793-7.438-20.684-18.086-40.625-35.082-58.219-50.074l-.09-.078c-51.582-43.957-96.125-81.918-127.117-119.313C16.137 236.81 0 197.172 0 153.871c0-42.07 14.426-80.883 40.617-109.293C67.121 15.832 103.488 0 143.031 0c29.555 0 56.621 9.344 80.446 27.77C235.5 37.07 246.398 48.453 256 61.73c9.605-13.277 20.5-24.66 32.527-33.96C312.352 9.344 339.418 0 368.973 0c39.539 0 75.91 15.832 102.414 44.578C497.578 72.988 512 111.801 512 153.871c0 43.3-16.133 82.938-50.777 124.738-30.993 37.399-75.532 75.356-127.106 119.309-17.625 15.016-37.597 32.039-58.328 50.168a30.046 30.046 0 01-19.789 7.43zM143.031 29.992c-31.066 0-59.605 12.399-80.367 34.914-21.07 22.856-32.676 54.45-32.676 88.965 0 36.418 13.535 68.988 43.883 105.606 29.332 35.394 72.961 72.574 123.477 115.625l.093.078c17.66 15.05 37.68 32.113 58.516 50.332 20.961-18.254 41.012-35.344 58.707-50.418 50.512-43.051 94.137-80.223 123.469-115.617 30.344-36.618 43.879-69.188 43.879-105.606 0-34.516-11.606-66.11-32.676-88.965-20.758-22.515-49.3-34.914-80.363-34.914-22.758 0-43.653 7.235-62.102 21.5-16.441 12.719-27.894 28.797-34.61 40.047-3.452 5.785-9.53 9.238-16.261 9.238s-12.809-3.453-16.262-9.238c-6.71-11.25-18.164-27.328-34.61-40.047-18.448-14.265-39.343-21.5-62.097-21.5zm0 0"/></svg><svg viewBox="0 0 511 511.9" id="instagram" xmlns="http://www.w3.org/2000/svg"><path d="M510.95 150.5c-1.2-27.2-5.598-45.898-11.9-62.102-6.5-17.199-16.5-32.597-29.6-45.398-12.802-13-28.302-23.102-45.302-29.5-16.296-6.3-34.898-10.7-62.097-11.898C334.648.3 325.949 0 256.449 0s-78.199.3-105.5 1.5c-27.199 1.2-45.898 5.602-62.097 11.898-17.204 6.5-32.602 16.5-45.403 29.602-13 12.8-23.097 28.3-29.5 45.3-6.3 16.302-10.699 34.9-11.898 62.098C.75 177.801.449 186.5.449 256s.301 78.2 1.5 105.5c1.2 27.2 5.602 45.898 11.903 62.102 6.5 17.199 16.597 32.597 29.597 45.398 12.801 13 28.301 23.102 45.301 29.5 16.3 6.3 34.898 10.7 62.102 11.898 27.296 1.204 36 1.5 105.5 1.5s78.199-.296 105.5-1.5c27.199-1.199 45.898-5.597 62.097-11.898a130.934 130.934 0 0074.903-74.898c6.296-16.301 10.699-34.903 11.898-62.102 1.2-27.3 1.5-36 1.5-105.5s-.102-78.2-1.3-105.5zm-46.098 209c-1.102 25-5.301 38.5-8.801 47.5-8.602 22.3-26.301 40-48.602 48.602-9 3.5-22.597 7.699-47.5 8.796-27 1.204-35.097 1.5-103.398 1.5s-76.5-.296-103.403-1.5c-25-1.097-38.5-5.296-47.5-8.796C94.551 451.5 84.45 445 76.25 436.5c-8.5-8.3-15-18.3-19.102-29.398-3.5-9-7.699-22.602-8.796-47.5-1.204-27-1.5-35.102-1.5-103.403s.296-76.5 1.5-103.398c1.097-25 5.296-38.5 8.796-47.5C61.25 94.199 67.75 84.1 76.352 75.898c8.296-8.5 18.296-15 29.398-19.097 9-3.5 22.602-7.7 47.5-8.801 27-1.2 35.102-1.5 103.398-1.5 68.403 0 76.5.3 103.403 1.5 25 1.102 38.5 5.3 47.5 8.8 11.097 4.098 21.199 10.598 29.398 19.098 8.5 8.301 15 18.301 19.102 29.403 3.5 9 7.699 22.597 8.8 47.5 1.2 27 1.5 35.097 1.5 103.398s-.3 76.301-1.5 103.301zm0 0"/><path d="M256.45 124.5c-72.598 0-131.5 58.898-131.5 131.5s58.902 131.5 131.5 131.5c72.6 0 131.5-58.898 131.5-131.5s-58.9-131.5-131.5-131.5zm0 216.8c-47.098 0-85.302-38.198-85.302-85.3s38.204-85.3 85.301-85.3c47.102 0 85.301 38.198 85.301 85.3s-38.2 85.3-85.3 85.3zm0 0M423.852 119.3c0 16.954-13.747 30.7-30.704 30.7-16.953 0-30.699-13.746-30.699-30.7 0-16.956 13.746-30.698 30.7-30.698 16.956 0 30.703 13.742 30.703 30.699zm0 0"/></svg><svg viewBox="0 0 511.999 511.999" id="location" xmlns="http://www.w3.org/2000/svg"><path d="M409.124 63.426C368.224 22.525 313.843 0 256.001 0S143.777 22.525 102.877 63.426c-40.901 40.902-63.426 95.282-63.426 153.123 0 117.012 110.638 214.337 170.077 266.623 8.26 7.266 15.393 13.541 21.076 18.849 7.12 6.651 16.259 9.977 25.396 9.977 9.139 0 18.276-3.326 25.397-9.977 5.683-5.309 12.816-11.583 21.076-18.849 59.439-52.287 170.077-149.611 170.077-266.623-.001-57.841-22.525-112.221-63.426-153.123zM282.663 460.654c-8.441 7.425-15.73 13.838-21.74 19.451-2.761 2.577-7.085 2.578-9.847 0-6.009-5.615-13.299-12.027-21.74-19.452-55.88-49.155-159.895-140.654-159.895-244.103 0-102.868 83.689-186.557 186.558-186.557 102.868 0 186.557 83.689 186.557 186.557.001 103.449-104.013 194.948-159.893 244.104z"/><path d="M256.001 112.938c-52.621 0-95.431 42.809-95.431 95.43s42.81 95.43 95.431 95.43 95.43-42.809 95.43-95.43-42.809-95.43-95.43-95.43zm0 160.867c-36.083 0-65.439-29.356-65.439-65.438s29.356-65.438 65.439-65.438 65.438 29.356 65.438 65.438-29.355 65.438-65.438 65.438z"/></svg><svg viewBox="0 0 129 48" id="logo-for-footer" xmlns="http://www.w3.org/2000/svg"><path d="M102.425 35.112c9.425-4.941 11.681-11.18 8.786-12.935-4.272-2.376-16.032 1.878-14.677 13.56-.583.343-1.752.975-1.752.975l.768 2.355s1.648-.98 2.072-1.272c1.38 1.11 2.097 1.719 4.22 1.774 4.54.104 8.441-4.915 8.441-4.915l-1.139-1.774c.025-.015-4.967 4.771-6.719 2.232zm1.251-7.162c1.351-2.377 3.53-4.228 4.617-3.489 1.088.74-1.087 4.494-6.158 8.5-.211-.358.186-2.613 1.541-5.011zm-86.61 11.604a3.575 3.575 0 01-2.47-1.03c-2.256-2.355-.133-10.308.316-12.027a.247.247 0 00-.237-.317.28.28 0 00-.238.133C13.48 28.242 8.305 39.554 3.74 39.554h-.268C-.96 39.13-.373 33.05 1.004 29.35h7.142c-.583 1.586-.769 2.587-.769 3.12.026.37.345.58.635.425.742-.4 1.964-1.985 3.025-3.807C12.95 25.732 15.443 20.71 19.734 8h7.814c-2.309 7.081-4.195 13.479-5.215 20.796a.424.424 0 00.485.486.428.428 0 00.235-.116C25.28 27.078 33.446 9.53 33.933 8h7.858s-7.725 21.273-7.086 24.84a.63.63 0 00.477.56.637.637 0 00.688-.269c.453-.554 1.091-1.375 1.54-1.877l1.114 1.109c-2.227 2.745-5.865 7.687-9.473 7.106a3.032 3.032 0 01-1.522-.816c-3.767-3.249 1.485-14.137 2.417-16.701.211-.555.397-1.083.53-1.401a.258.258 0 00-.24-.344.274.274 0 00-.238.133c-.186.396-.665 1.427-.85 1.77-2.317 4.783-7.677 17.444-12.083 17.444zm73.789-26.11a8.526 8.526 0 00-5.71 2.058l.057 2.088s2.494-2.509 5.096-1.426c1.696.687 2.97 2.668 2.016 6.131-.052.21-.16.61-.212.82-.742-1.585-3.504-2.8-7.353.104-2.814 2.114-3.53 4.361-4.083 6.187-.798 2.668-.743 5.544-.134 7.266a5.099 5.099 0 002.947 2.957c6.37 2.405 11.388-7.392 12.925-14.455.98-4.464 1.722-11.6-5.55-11.73zm-3.426 21.458c-.717.476-1.938.687-2.124-1.508-.237-3.145 2.072-6.845 2.762-7.717 1.195-1.453 2.814-1.53 2.788.74-.026 2.645-1.648 7.32-3.426 8.485zM68.212 11.618c-3.767-1.293-17.075 2.909-21.474 17.574-.53.159-3.103.794-3.103.794l-1.113 3.012 3.938-1.216s-.427 7.532 6.21 7.762c5.23-.189 7.962-7.85 6.292-13.058-.32.16-4.514 2.166-4.514 2.166s.876 5.104-.98 6.283a.635.635 0 01-.905-.185c-.531-.74-.877-2.694-.29-5.285 9.58-4.967 16.136-13.674 16.537-16.701a1.016 1.016 0 00-.598-1.146zM56.293 24.594a22.328 22.328 0 01-3.155 2.036s.501-1.164.876-1.825c1.032-1.715 5.969-8.35 10.111-9.565a.202.202 0 01.261.13c.011.034.012.071.003.107 0 1.456-5.253 6.977-8.096 9.117zM76.044 35.43a.2.2 0 00.29.237 18.35 18.35 0 001.484-1.083l.531 1.611c-.319.344-2.869 2.354-4.454 3.093-1.722.795-3.289-.262-3.53-1.533-.238-1.479.505-3.408.505-3.408s-2.732 3.12-5.52 4.624a3.858 3.858 0 01-1.833.584c-1.883-.056-2.469-1.848-2.254-2.831.238-1.16 2.788-8.959 3.104-10.227a.217.217 0 00-.162-.234.22.22 0 00-.102-.002c-.772.21-2.788 1.53-2.788 1.53v-2.166s5.84-3.965 7.298-4.387c1.355-.37 2.524.396 2.179 1.93-.16 1.056-3.957 10.226-3.957 11.39a.191.191 0 00.148.212c.03.007.063.007.093-.002 1.088-.317 3.077-2.006 4.592-4.412 1.433-2.247 2.387-5.075 3.582-8.59h5.07c-.003.027-3.853 11.735-4.276 13.664zm52.951-10.995c.108 1.641-1.459 10.282-7.829 13.745-1.885 1.03-3.158 1.426-4.302 1.374-2.706-.08-3.979-2.272-4.272-2.986-3.103-7.665 5.972-14.783 5.972-14.783h5.256s-8.017 6.372-6.9 12.026c.876 3.434 4.083 1.77 5.865-2.114.345-.768 2.494-5.869 1.143-5.946-1.195-.082-2.788 2.432-2.788 2.432l-1.113-1.693c.876-1.109 3.318-4.017 6.054-4.941.445-.126 2.888-.629 2.914 2.886zM40.892 35.378a2.104 2.104 0 011.938 1.29 2.08 2.08 0 01-.455 2.275 2.1 2.1 0 01-2.285.453 2.095 2.095 0 01-1.14-2.731 2.072 2.072 0 011.137-1.132 2.09 2.09 0 01.805-.155z"/></svg><svg viewBox="0 0 18 18" id="ok" xmlns="http://www.w3.org/2000/svg"><path d="M9 9.74A4.87 4.87 0 109 0a4.87 4.87 0 000 9.74zm0-7.492a2.623 2.623 0 110 5.245 2.623 2.623 0 010-5.245z"/><path d="M13.77 12.049c.53-.349.849-.94.85-1.574a1.36 1.36 0 00-.762-1.24 1.424 1.424 0 00-1.499.14 5.702 5.702 0 01-6.717 0 1.431 1.431 0 00-1.499-.14 1.36 1.36 0 00-.763 1.24c.001.633.32 1.224.85 1.573a8.65 8.65 0 002.195 1.049c.132.04.268.079.408.114l-2.264 2.214a1.499 1.499 0 102.123 2.114L9 15.152l2.312 2.393a1.499 1.499 0 102.116-2.122l-2.26-2.212a8.617 8.617 0 002.603-1.161z"/></svg><svg viewBox="0 0 192.904 192.904" id="search" xmlns="http://www.w3.org/2000/svg"><path d="M190.707 180.101l-47.078-47.077c11.702-14.072 18.752-32.142 18.752-51.831C162.381 36.423 125.959 0 81.191 0 36.422 0 0 36.423 0 81.193c0 44.767 36.422 81.187 81.191 81.187 19.688 0 37.759-7.049 51.831-18.751l47.079 47.078a7.474 7.474 0 005.303 2.197 7.498 7.498 0 005.303-12.803zM15 81.193C15 44.694 44.693 15 81.191 15c36.497 0 66.189 29.694 66.189 66.193 0 36.496-29.692 66.187-66.189 66.187C44.693 147.38 15 117.689 15 81.193z"/></svg><svg viewBox="0 0 512 512" id="shopping-cart" xmlns="http://www.w3.org/2000/svg"><path d="M509.867 89.6c-2.133-2.133-4.267-4.267-8.533-4.267H96L85.333 29.867c0-4.267-6.4-8.533-10.667-8.533h-64C4.267 21.333 0 25.6 0 32s4.267 10.667 10.667 10.667h55.467l51.2 260.267c6.4 34.133 38.4 59.733 72.533 59.733H435.2c6.4 0 10.667-4.267 10.667-10.667 0-6.4-4.267-10.667-10.667-10.667H192c-17.067 0-34.133-8.533-42.667-23.467L460.8 275.2c4.267 0 8.533-4.267 8.533-8.533L512 96s0-4.267-2.133-6.4zM450.133 256l-311.467 40.533-38.4-192H486.4L450.133 256zM181.333 384C151.467 384 128 407.467 128 437.333c0 29.867 23.467 53.333 53.333 53.333 29.867 0 53.333-23.467 53.333-53.333C234.667 407.467 211.2 384 181.333 384zm0 85.333c-17.067 0-32-14.934-32-32s14.933-32 32-32 32 14.934 32 32-14.933 32-32 32zM394.667 384c-29.867 0-53.333 23.467-53.333 53.333 0 29.867 23.467 53.333 53.333 53.333 29.867 0 53.333-23.467 53.333-53.333S424.533 384 394.667 384zm0 85.333c-17.067 0-32-14.934-32-32s14.933-32 32-32 32 14.934 32 32-14.934 32-32 32z"/></svg><svg viewBox="0 0 478 478" id="statistics" xmlns="http://www.w3.org/2000/svg"><path d="M119.5 187.75H17.1c-9.4 0-17 7.6-17.1 17.1v256c0 9.5 7.7 17.1 17.1 17.1h102.4c9.5 0 17.1-7.7 17.1-17.1v-256c0-9.5-7.7-17.1-17.1-17.1zM290.2.05H187.8c-9.4 0-17.1 7.6-17.1 17v443.8c0 9.5 7.7 17.1 17.1 17.1h102.4c9.5 0 17.1-7.7 17.1-17.1V17.15c0-9.5-7.7-17.1-17.1-17.1zM460.9 136.55H358.5c-9.5 0-17.1 7.6-17.1 17.1v307.2c0 9.5 7.7 17.1 17.1 17.1h102.4c9.5 0 17.1-7.7 17.1-17.1v-307.2c0-9.5-7.7-17.1-17.1-17.1z"/></svg><svg viewBox="0 0 482.6 482.6" id="telephone" xmlns="http://www.w3.org/2000/svg"><path d="M98.339 320.8c47.6 56.9 104.9 101.7 170.3 133.4 24.9 11.8 58.2 25.8 95.3 28.2 2.3.1 4.5.2 6.8.2 24.9 0 44.9-8.6 61.2-26.3.1-.1.3-.3.4-.5 5.8-7 12.4-13.3 19.3-20 4.7-4.5 9.5-9.2 14.1-14 21.3-22.2 21.3-50.4-.2-71.9l-60.1-60.1c-10.2-10.6-22.4-16.2-35.2-16.2-12.8 0-25.1 5.6-35.6 16.1l-35.8 35.8c-3.3-1.9-6.7-3.6-9.9-5.2-4-2-7.7-3.9-11-6-32.6-20.7-62.2-47.7-90.5-82.4-14.3-18.1-23.9-33.3-30.6-48.8 9.4-8.5 18.2-17.4 26.7-26.1 3-3.1 6.1-6.2 9.2-9.3 10.8-10.8 16.6-23.3 16.6-36s-5.7-25.2-16.6-36l-29.8-29.8c-3.5-3.5-6.8-6.9-10.2-10.4-6.6-6.8-13.5-13.8-20.3-20.1-10.3-10.1-22.4-15.4-35.2-15.4-12.7 0-24.9 5.3-35.6 15.5l-37.4 37.4c-13.6 13.6-21.3 30.1-22.9 49.2-1.9 23.9 2.5 49.3 13.9 80 17.5 47.5 43.9 91.6 83.1 138.7zm-72.6-216.6c1.2-13.3 6.3-24.4 15.9-34l37.2-37.2c5.8-5.6 12.2-8.5 18.4-8.5 6.1 0 12.3 2.9 18 8.7 6.7 6.2 13 12.7 19.8 19.6 3.4 3.5 6.9 7 10.4 10.6l29.8 29.8c6.2 6.2 9.4 12.5 9.4 18.7s-3.2 12.5-9.4 18.7c-3.1 3.1-6.2 6.3-9.3 9.4-9.3 9.4-18 18.3-27.6 26.8l-.5.5c-8.3 8.3-7 16.2-5 22.2.1.3.2.5.3.8 7.7 18.5 18.4 36.1 35.1 57.1 30 37 61.6 65.7 96.4 87.8 4.3 2.8 8.9 5 13.2 7.2 4 2 7.7 3.9 11 6 .4.2.7.4 1.1.6 3.3 1.7 6.5 2.5 9.7 2.5 8 0 13.2-5.1 14.9-6.8l37.4-37.4c5.8-5.8 12.1-8.9 18.3-8.9 7.6 0 13.8 4.7 17.7 8.9l60.3 60.2c12 12 11.9 25-.3 37.7-4.2 4.5-8.6 8.8-13.3 13.3-7 6.8-14.3 13.8-20.9 21.7-11.5 12.4-25.2 18.2-42.9 18.2-1.7 0-3.5-.1-5.2-.2-32.8-2.1-63.3-14.9-86.2-25.8-62.2-30.1-116.8-72.8-162.1-127-37.3-44.9-62.4-86.7-79-131.5-10.3-27.5-14.2-49.6-12.6-69.7z"/></svg><svg viewBox="0 0 19 17" id="tw" xmlns="http://www.w3.org/2000/svg"><path d="M7.088 16.295a16.31 16.31 0 01-2.518-.2c-1.498-.235-3.015-1.02-3.444-1.254L0 14.226l1.219-.401c1.332-.438 2.143-.71 3.146-1.136-1.005-.486-1.779-1.361-2.152-2.492l-.283-.861.232.035a4.228 4.228 0 01-.53-.653C1.153 7.99.9 7.098.953 6.335l.054-.751.45.174a4.205 4.205 0 01-.408-1.142 4.346 4.346 0 01.463-2.926l.392-.72.524.63c1.658 1.99 3.757 3.172 6.248 3.518a3.737 3.737 0 01.227-1.986c.294-.706.817-1.305 1.511-1.732a4.54 4.54 0 012.634-.647c.984.06 1.878.429 2.587 1.067.346-.09.602-.187.947-.316.207-.079.443-.167.737-.269l1.086-.374-.708 2.022.145-.01 1.16-.052-.686.936c-.04.054-.05.07-.063.09-.055.083-.124.187-1.064 1.442a1.771 1.771 0 00-.332 1.154c.084 1.631-.116 3.108-.595 4.387a7.765 7.765 0 01-2.084 3.088c-1.151 1.037-2.62 1.746-4.363 2.11-.856.177-1.775.267-2.726.267z"/></svg><svg viewBox="0 0 512 512" id="user" xmlns="http://www.w3.org/2000/svg"><path d="M437.02 330.98c-27.883-27.882-61.071-48.523-97.281-61.018C378.521 243.251 404 198.548 404 148 404 66.393 337.607 0 256 0S108 66.393 108 148c0 50.548 25.479 95.251 64.262 121.962-36.21 12.495-69.398 33.136-97.281 61.018C26.629 379.333 0 443.62 0 512h40c0-119.103 96.897-216 216-216s216 96.897 216 216h40c0-68.38-26.629-132.667-74.98-181.02zM256 256c-59.551 0-108-48.448-108-108S196.449 40 256 40s108 48.448 108 108-48.449 108-108 108z"/></svg><svg viewBox="0 0 20 20" id="vk" xmlns="http://www.w3.org/2000/svg"><g clip-path="url(#qclip0)"><path d="M19.894 14.6a1.345 1.345 0 00-.068-.13c-.347-.625-1.01-1.393-1.989-2.302l-.02-.02-.01-.011-.011-.01h-.01c-.445-.424-.726-.709-.844-.854-.216-.278-.264-.56-.146-.844.083-.215.396-.67.937-1.364.285-.368.51-.663.677-.885 1.201-1.597 1.722-2.617 1.562-3.062l-.062-.103c-.042-.063-.15-.12-.323-.172-.174-.052-.396-.06-.666-.026l-3 .02a.389.389 0 00-.208.006l-.135.031-.052.026-.042.031a.463.463 0 00-.114.11.716.716 0 00-.104.182c-.327.84-.698 1.62-1.114 2.343-.257.43-.493.803-.709 1.12a5.387 5.387 0 01-.541.697c-.146.15-.278.269-.396.36-.118.09-.208.128-.27.114a7.733 7.733 0 01-.178-.042.692.692 0 01-.234-.255 1.141 1.141 0 01-.12-.406 4.45 4.45 0 01-.036-.422 8.705 8.705 0 01.005-.5c.007-.215.01-.36.01-.437 0-.264.006-.55.016-.86l.026-.733c.007-.18.01-.372.01-.573 0-.201-.012-.36-.036-.474a1.619 1.619 0 00-.109-.333.561.561 0 00-.213-.25 1.203 1.203 0 00-.35-.14c-.367-.084-.836-.13-1.405-.136-1.291-.014-2.12.07-2.489.25-.146.076-.278.18-.396.312-.125.153-.142.236-.052.25.417.062.712.212.885.448l.063.125c.049.09.097.25.146.479.048.229.08.482.093.76.035.507.035.94 0 1.302-.034.36-.067.642-.098.843a1.689 1.689 0 01-.266.718.18.18 0 01-.052.053.78.78 0 01-.281.052c-.098 0-.216-.049-.354-.146a2.499 2.499 0 01-.432-.401 5.359 5.359 0 01-.506-.713A12.447 12.447 0 015.3 7.545l-.166-.302a25.97 25.97 0 01-.427-.849c-.18-.371-.34-.73-.48-1.078a.686.686 0 00-.249-.333l-.052-.031a.713.713 0 00-.167-.089 1.105 1.105 0 00-.24-.068l-2.852.021c-.292 0-.49.066-.594.198l-.042.063A.337.337 0 000 5.243c0 .077.02.17.063.281.416.98.869 1.923 1.358 2.833.49.91.915 1.642 1.276 2.197.36.555.729 1.08 1.104 1.572.375.493.623.809.744.948.122.139.217.243.287.312l.26.25c.167.167.411.366.734.599.323.232.68.462 1.073.687.392.226.848.41 1.37.552.52.142 1.027.2 1.52.172h1.197c.243-.021.427-.097.552-.23l.041-.051a.687.687 0 00.078-.193c.025-.087.037-.182.037-.286a3.429 3.429 0 01.067-.807c.052-.24.111-.42.178-.542a1.33 1.33 0 01.4-.458.691.691 0 01.084-.036c.166-.056.362-.002.588.161.226.164.438.365.636.604.197.24.435.509.713.807.278.299.52.52.729.667l.208.125c.139.083.32.16.542.229.221.07.416.087.583.052l2.665-.042c.264 0 .469-.043.614-.13.146-.087.233-.182.26-.286a.805.805 0 00.006-.354 1.311 1.311 0 00-.073-.276z"/></g><defs><clipPath id="qclip0"><path d="M0 0h20v20H0z"/></clipPath></defs></svg><svg viewBox="0 0 96.875 96.875" id="youtube" xmlns="http://www.w3.org/2000/svg"><path d="M95.201 25.538c-1.186-5.152-5.4-8.953-10.473-9.52-12.013-1.341-24.172-1.348-36.275-1.341-12.105-.007-24.266 0-36.279 1.341-5.07.567-9.281 4.368-10.467 9.52C.019 32.875 0 40.884 0 48.438 0 55.992 0 64 1.688 71.336c1.184 5.151 5.396 8.952 10.469 9.52 12.012 1.342 24.172 1.349 36.277 1.342 12.107.007 24.264 0 36.275-1.342 5.07-.567 9.285-4.368 10.471-9.52 1.689-7.337 1.695-15.345 1.695-22.898 0-7.554.014-15.563-1.674-22.9zM35.936 63.474V31.437a497491.15 497491.15 0 0030.798 16.068c-10.3 5.342-20.504 10.631-30.798 15.969z"/></svg></svg>